<svg xmlns="http://www.w3.org/2000/svg" viewBox="0 0 145 49.316"><g fill="#414042"><path d="M5.81 49.316H0V15.89h5.81v2.355c2.29-1.97 4.89-2.956 7.798-2.956 3.46 0 6.31 1.096 8.547 3.29 2.273 2.177 3.41 4.926 3.41 8.244 0 3.245-1.128 5.95-3.383 8.11-2.24 2.15-5.06 3.225-8.47 3.225-2.943 0-5.577-1.016-7.9-3.046v14.202zm13.815-22.47c0-2.073-.654-3.763-1.962-5.066-1.326-1.32-2.996-1.98-5.01-1.98-2.134 0-3.865.64-5.19 1.912-1.326 1.275-1.99 2.95-1.99 5.022 0 2.03.664 3.705 1.99 5.023 1.308 1.29 3.03 1.934 5.165 1.934 2.014 0 3.675-.65 4.983-1.955 1.344-1.303 2.015-2.933 2.015-4.888z"/><path d="M25.1 15.89h5.81v2c1.118-1.008 2.074-1.69 2.866-2.044.844-.37 1.903-.557 3.176-.557 2.84 0 5.087 1.066 6.74 3.2 1.824-2.134 4.294-3.2 7.41-3.2 5.665 0 8.497 2.955 8.497 8.867v13.38h-5.836V25.51c0-2.074-.293-3.54-.88-4.4-.602-.874-1.59-1.31-2.968-1.31-1.602 0-2.77.518-3.5 1.554-.73 1.038-1.096 2.704-1.096 5v11.18h-5.836V25.58c0-3.853-1.29-5.778-3.873-5.778-1.635 0-2.827.525-3.575 1.577-.75 1.052-1.124 2.71-1.124 4.978v11.18H25.1V15.89zM66.423 15.89l6.584 12.356 7.102-14.334 7.152 14.334L93.77 15.89h6.507l-13.17 23.27-6.997-13.936-7.076 13.935L59.89 15.89h6.533z"/><path d="M119.694 27.89H101.67c.156 1.778.827 3.194 2.015 4.246 1.188 1.037 2.712 1.556 4.57 1.556 1.447 0 2.643-.297 3.59-.89.93-.592 1.99-1.688 3.176-3.29l4.907 2.357c-.758 1.11-1.558 2.062-2.4 2.854s-1.75 1.444-2.712 1.956a11.95 11.95 0 01-3.125 1.122 17.58 17.58 0 01-3.64.355c-3.755 0-6.767-1.037-9.04-3.11-2.27-2.09-3.408-4.86-3.408-8.314 0-3.422 1.102-6.192 3.305-8.312 2.22-2.09 5.165-3.133 8.832-3.133 3.7 0 6.626 1.016 8.778 3.045 2.134 2.016 3.202 4.81 3.202 8.38l-.026 1.18zm-5.964-4.09c-.81-2.665-2.764-4-5.862-4-.706 0-1.37.094-1.988.28-.62.185-1.184.45-1.692.8-.508.348-.94.766-1.303 1.255a5.414 5.414 0 00-.827 1.666h11.672z"/><path d="M125.246 0v18.4c2.325-2.072 4.958-3.11 7.902-3.11 3.392 0 6.215 1.09 8.47 3.268 2.254 2.163 3.382 4.86 3.382 8.09 0 3.333-1.136 6.09-3.408 8.268-2.256 2.162-5.105 3.244-8.547 3.244-2.91 0-5.51-.963-7.8-2.89v2.268h-5.81V0h5.81zm13.815 26.87c0-2.074-.652-3.765-1.96-5.067-1.327-1.334-2.988-2-4.985-2-2.134 0-3.873.645-5.215 1.933-1.326 1.274-1.99 2.935-1.99 4.98 0 2.103.655 3.785 1.963 5.044 1.31 1.29 3.03 1.934 5.165 1.934 2.015 0 3.685-.644 5.01-1.934 1.343-1.305 2.013-2.935 2.013-4.89z"/></g></svg>